<?xml version="1.0" standalone="no"?>
<!DOCTYPE svg PUBLIC "-//W3C//DTD SVG 20010904//EN"
 "http://www.w3.org/TR/2001/REC-SVG-20010904/DTD/svg10.dtd">
<svg version="1.0" xmlns="http://www.w3.org/2000/svg"
 width="1600.000000pt" height="1600.000000pt" viewBox="0 0 1600.000000 1600.000000"
 preserveAspectRatio="xMidYMid meet">
<metadata>
Created by potrace 1.11, written by Peter Selinger 2001-2013
</metadata>
<g transform="translate(0.000000,1600.000000) scale(0.100000,-0.100000)"
fill="#000000" stroke="none">
<path d="M8540 15980 c-143 -21 -145 -22 -172 -75 -19 -36 -44 -148 -53 -230
-4 -33 -8 -76 -10 -95 -6 -50 -15 -170 -20 -274 -3 -69 -9 -94 -23 -110 -59
-65 -65 -165 -13 -220 20 -21 21 -38 26 -566 3 -300 7 -599 10 -665 2 -66 6
-201 9 -300 7 -194 13 -375 21 -550 3 -60 7 -164 10 -230 9 -198 24 -514 30
-620 4 -75 8 -139 20 -365 3 -52 7 -124 10 -160 4 -62 12 -185 20 -335 3 -38
8 -119 12 -180 4 -60 8 -131 8 -157 0 -27 2 -48 5 -48 3 0 5 -28 4 -63 0 -34
4 -70 8 -79 6 -12 5 -18 -3 -18 -8 0 -8 -4 -2 -12 6 -7 11 -40 13 -73 1 -33 3
-78 5 -100 4 -46 17 -231 20 -290 2 -22 4 -40 5 -40 1 0 3 -26 4 -57 1 -32 5
-60 9 -64 4 -4 2 -13 -4 -21 -6 -7 -7 -13 -3 -13 8 0 14 -55 18 -177 0 -24 3
-43 6 -43 3 0 5 -20 5 -45 0 -25 2 -45 5 -45 3 0 5 -21 6 -48 1 -26 4 -74 7
-107 10 -93 19 -197 20 -232 1 -18 4 -33 7 -33 3 0 5 -17 5 -37 -1 -21 1 -42
4 -47 2 -6 6 -26 8 -45 1 -20 5 -54 8 -76 3 -22 7 -58 9 -80 2 -22 7 -51 10
-65 3 -14 8 -41 10 -60 9 -63 22 -95 41 -99 20 -3 143 48 216 90 44 26 71 41
194 109 33 18 143 82 244 142 101 59 187 108 191 108 4 0 15 9 25 20 9 10 20
18 24 17 4 -1 36 16 72 39 35 23 86 54 112 70 60 35 77 46 197 119 52 32 97
62 98 67 2 4 9 8 14 8 13 0 112 61 116 72 2 5 8 8 13 8 5 0 35 17 66 37 32 21
66 42 75 48 10 5 75 46 145 90 70 44 135 85 144 90 83 50 166 101 174 107 21
17 86 58 91 58 3 0 31 17 62 38 31 21 64 42 72 45 19 9 631 402 647 416 7 6
15 11 19 11 4 0 21 10 38 23 17 12 43 29 59 36 15 8 27 18 27 23 0 4 6 8 13 8
7 0 22 8 33 18 10 10 23 19 27 19 19 4 107 64 107 74 0 8 5 7 16 -1 8 -8 14
-9 12 -3 -4 15 102 85 119 79 8 -3 12 -2 9 3 -9 13 32 44 49 37 9 -3 14 -2 11
3 -8 12 42 43 56 35 6 -4 8 -3 5 3 -7 11 39 46 60 46 7 0 10 4 7 9 -5 7 10 12
29 9 5 -1 6 3 2 9 -3 5 7 16 22 22 15 7 34 19 42 26 8 8 44 32 80 55 36 23
126 81 199 129 73 49 137 88 142 88 6 0 10 4 10 9 0 5 8 11 18 15 24 8 56 29
65 44 4 6 12 12 18 12 14 0 119 72 119 81 0 5 3 8 8 7 9 -3 156 92 160 103 2
5 7 9 12 9 8 0 490 317 500 329 6 7 40 29 60 38 8 4 24 15 36 26 12 10 25 18
28 18 4 -1 13 4 21 11 33 30 45 38 54 38 6 0 15 8 20 18 6 9 11 13 11 9 0 -4
24 10 53 31 28 21 67 47 85 57 17 11 32 23 32 28 0 4 5 5 10 2 6 -3 10 -2 10
3 0 5 16 17 35 28 19 10 35 21 35 24 0 3 16 14 35 24 19 11 35 23 35 28 0 5 5
6 10 3 6 -3 13 1 16 9 3 9 10 16 16 16 5 0 29 15 52 33 24 17 54 39 66 47 12
8 41 29 64 46 22 17 84 63 137 102 144 107 159 122 154 163 -7 49 -61 178
-124 294 -63 116 -181 308 -193 313 -4 2 -8 8 -8 14 0 10 -49 79 -65 90 -7 5
-7 8 0 8 6 0 6 3 0 8 -6 4 -32 36 -58 72 -52 70 -85 112 -114 147 -10 12 -34
41 -53 64 -169 206 -462 512 -631 659 -35 30 -79 69 -99 86 -169 146 -650 501
-650 478 0 -3 -7 2 -16 10 -16 16 -211 133 -229 137 -5 2 -16 9 -23 16 -8 7
-17 11 -22 8 -5 -3 -10 -1 -12 3 -4 11 -138 84 -138 76 0 -4 -8 0 -18 9 -10
10 -22 14 -25 10 -4 -3 -7 -1 -7 5 0 7 -4 12 -9 12 -5 0 -66 27 -136 60 -70
33 -132 60 -139 60 -7 0 -16 4 -21 8 -6 5 -41 21 -80 37 -38 15 -84 34 -102
42 -95 41 -559 200 -606 207 -7 1 -17 5 -23 9 -7 4 -28 8 -48 9 -20 2 -36 6
-36 9 0 6 -42 17 -85 22 -11 1 -22 5 -25 8 -10 11 -262 69 -273 62 -6 -4 -7
-1 -2 7 6 10 1 12 -19 8 -14 -3 -26 -1 -26 5 0 5 -9 7 -20 4 -11 -3 -23 -1
-26 5 -3 5 -12 7 -20 4 -7 -3 -16 0 -20 5 -3 6 -15 9 -25 6 -10 -3 -22 -1 -25
5 -3 5 -15 8 -25 5 -11 -3 -19 -1 -19 3 0 4 -13 7 -30 6 -16 -1 -30 1 -30 5 0
4 -8 8 -17 8 -32 2 -69 7 -79 12 -9 5 -46 10 -91 13 -13 0 -23 4 -23 7 0 3 -6
6 -12 6 -7 1 -33 4 -58 8 -25 3 -61 8 -80 10 -19 2 -35 4 -35 5 0 3 -42 11
-65 11 -14 1 -31 6 -37 11 -9 7 -13 7 -13 -1 0 -7 -4 -9 -10 -6 -10 6 -50 13
-120 20 -25 3 -58 7 -75 9 -95 13 -212 24 -315 31 -47 4 -96 9 -110 12 -42 8
-721 11 -780 3z"/>
<path d="M7419 14586 c-3 -3 -47 -8 -99 -12 -52 -3 -98 -8 -101 -10 -4 -2 -40
-7 -80 -10 -98 -9 -124 -12 -124 -14 0 -1 -9 -3 -20 -4 -98 -12 -141 -19 -164
-23 -14 -3 -43 -6 -63 -7 -21 -1 -38 -3 -38 -6 0 -4 -10 -6 -22 -7 -32 -1 -61
-7 -75 -16 -8 -5 -13 -3 -13 3 0 6 -5 8 -12 3 -14 -8 -23 -10 -87 -18 -25 -4
-49 -9 -53 -12 -12 -6 -57 -14 -85 -14 -12 1 -25 -4 -28 -9 -4 -6 -11 -8 -16
-5 -5 4 -14 3 -21 -1 -6 -4 -25 -9 -42 -11 -42 -5 -71 -10 -71 -12 0 -2 -11
-5 -65 -15 -14 -2 -25 -5 -25 -6 0 -1 -13 -4 -30 -6 -16 -3 -37 -7 -45 -11 -8
-3 -28 -7 -45 -9 -16 -3 -31 -8 -33 -13 -1 -4 -14 -6 -29 -3 -16 3 -24 1 -20
-5 4 -6 -3 -8 -17 -6 -13 3 -27 0 -30 -6 -4 -5 -13 -8 -21 -4 -8 3 -15 0 -15
-6 0 -6 -6 -8 -14 -5 -8 3 -17 0 -21 -5 -3 -6 -10 -9 -15 -6 -4 3 -27 -2 -51
-11 -24 -9 -53 -17 -64 -19 -30 -4 -79 -17 -90 -24 -5 -3 -19 -7 -29 -8 -11
-2 -26 -9 -35 -16 -12 -9 -13 -9 -7 0 5 9 2 11 -8 7 -9 -3 -16 -10 -16 -16 0
-5 -4 -6 -10 -3 -5 3 -16 3 -22 -2 -7 -4 -17 -8 -23 -10 -5 -1 -21 -4 -34 -7
-31 -7 -243 -77 -256 -85 -5 -3 -16 -6 -23 -7 -8 -2 -21 -6 -30 -10 -9 -4 -21
-8 -27 -9 -27 -7 -241 -89 -249 -96 -6 -5 -17 -9 -26 -9 -8 0 -32 -9 -53 -20
-20 -11 -40 -21 -44 -21 -12 -2 -44 -15 -145 -58 -51 -22 -100 -41 -108 -43
-8 -2 -18 -7 -22 -13 -7 -10 -11 -11 -42 -14 -8 0 -22 -8 -30 -17 -9 -8 -16
-13 -16 -10 0 4 -19 -4 -42 -16 -24 -12 -45 -23 -48 -24 -3 -1 -15 -5 -27 -9
-13 -4 -23 -12 -23 -17 0 -5 -4 -7 -9 -3 -5 3 -16 -1 -24 -9 -8 -8 -17 -12
-21 -9 -3 4 -6 1 -6 -5 0 -7 -3 -11 -7 -10 -15 4 -53 -14 -53 -24 0 -6 -3 -9
-6 -6 -3 4 -35 -9 -70 -28 -95 -50 -108 -58 -115 -67 -3 -5 -9 -8 -13 -8 -9 2
-103 -47 -151 -78 -22 -14 -43 -25 -47 -26 -4 0 -16 -7 -25 -15 -10 -8 -39
-26 -63 -39 -45 -24 -469 -301 -493 -321 -6 -6 -52 -40 -102 -76 -49 -37 -93
-71 -97 -78 -4 -6 -8 -7 -8 -3 0 4 -10 -2 -22 -13 -13 -12 -36 -31 -51 -43
-33 -26 -48 -38 -108 -89 -24 -21 -55 -47 -69 -59 -89 -74 -186 -165 -335
-314 -146 -146 -209 -213 -308 -329 -10 -12 -27 -31 -37 -43 -16 -19 -152
-190 -193 -243 -42 -54 -67 -89 -67 -94 0 -3 -11 -17 -25 -32 -14 -15 -25 -33
-25 -40 0 -8 -4 -14 -9 -14 -6 0 -20 -18 -32 -40 -13 -22 -27 -40 -31 -40 -5
0 -6 -4 -3 -10 3 -5 2 -10 -2 -10 -5 0 -17 -17 -28 -37 -11 -21 -22 -40 -25
-43 -13 -12 -44 -66 -42 -72 1 -5 -3 -8 -8 -8 -6 0 -10 -4 -10 -8 0 -5 -31
-62 -68 -128 -37 -65 -97 -177 -132 -249 -35 -71 -71 -146 -81 -165 -30 -61
-120 -284 -122 -302 -1 -10 -5 -18 -10 -18 -5 0 -7 -7 -3 -15 3 -8 2 -15 -3
-15 -7 0 -35 -73 -36 -95 0 -5 -2 -12 -5 -15 -5 -5 -40 -100 -44 -122 -2 -7
-8 -26 -15 -42 -6 -16 -10 -35 -7 -42 3 -7 0 -14 -6 -16 -6 -2 -11 -18 -11
-36 0 -17 -4 -29 -9 -26 -4 3 -8 -3 -9 -13 0 -10 -3 -27 -5 -38 -3 -11 -7 -27
-8 -35 -2 -8 -6 -23 -10 -32 -4 -9 -5 -22 -1 -28 3 -5 1 -10 -6 -10 -6 0 -9
-8 -6 -20 3 -11 2 -20 -3 -20 -8 0 -24 -79 -23 -112 0 -10 -4 -15 -10 -11 -6
4 -8 -4 -5 -21 3 -14 1 -29 -4 -32 -5 -3 -7 -12 -4 -20 3 -8 1 -14 -3 -14 -5
0 -8 -11 -6 -25 1 -14 -1 -25 -5 -25 -5 0 -7 -13 -6 -30 1 -16 -1 -30 -5 -30
-4 0 -7 -8 -7 -17 0 -17 -2 -31 -17 -103 -6 -30 -17 -95 -21 -130 -1 -14 -3
-25 -4 -25 -2 0 -8 -32 -14 -80 -8 -62 -17 -127 -22 -155 -3 -14 -7 -41 -8
-60 -5 -45 -15 -135 -21 -180 -3 -19 -7 -62 -10 -95 -2 -33 -7 -89 -10 -125
-33 -380 -37 -989 -10 -1305 2 -27 7 -87 10 -132 3 -45 8 -90 9 -100 2 -10 7
-57 10 -104 4 -48 11 -101 16 -118 6 -22 5 -31 -3 -31 -8 0 -8 -3 -2 -8 6 -4
11 -18 12 -32 2 -27 9 -83 19 -140 3 -19 8 -48 10 -65 2 -16 6 -50 10 -75 3
-25 7 -55 7 -67 1 -13 5 -23 9 -23 4 0 7 -8 6 -17 0 -10 3 -29 6 -43 3 -14 7
-42 10 -62 2 -21 7 -42 10 -47 4 -5 9 -33 11 -62 3 -29 9 -56 13 -59 4 -3 7
-15 6 -27 -1 -13 3 -23 8 -23 5 0 7 -4 4 -8 -7 -12 24 -144 38 -161 8 -11 8
-13 -1 -8 -9 6 -8 -2 2 -26 8 -19 11 -37 8 -41 -4 -3 -2 -6 4 -6 6 0 9 -8 6
-19 -3 -10 0 -22 6 -25 5 -4 8 -13 4 -21 -3 -8 -1 -15 3 -15 5 0 10 -15 11
-32 2 -18 7 -34 12 -36 5 -2 7 -12 4 -22 -3 -11 -1 -20 4 -20 5 0 9 -8 10 -17
3 -46 107 -387 126 -410 5 -7 7 -13 3 -13 -6 0 10 -47 84 -250 63 -172 191
-478 266 -636 16 -33 29 -61 29 -64 2 -16 31 -70 38 -70 5 0 5 -4 2 -10 -3 -5
-1 -10 4 -10 6 0 10 -3 9 -7 -3 -13 45 -113 54 -113 5 0 6 -4 3 -10 -3 -5 -2
-10 3 -10 5 0 9 -6 9 -12 0 -7 14 -36 31 -65 17 -28 28 -54 25 -57 -4 -3 -2
-6 3 -6 5 0 18 -20 28 -44 11 -25 24 -43 28 -40 4 3 8 -3 8 -12 0 -19 188
-336 291 -492 38 -57 69 -107 69 -112 0 -4 4 -10 8 -12 10 -4 112 -152 112
-162 0 -4 11 -17 25 -30 14 -13 25 -26 25 -30 0 -9 67 -99 98 -131 6 -8 12
-18 12 -24 0 -6 4 -11 8 -11 4 0 15 -12 24 -28 9 -15 26 -38 38 -52 12 -14 34
-40 48 -59 15 -19 41 -51 57 -70 17 -20 35 -42 40 -49 6 -7 24 -28 40 -47 17
-19 46 -53 65 -76 84 -100 411 -420 520 -508 14 -11 32 -26 40 -34 8 -7 35
-29 60 -48 24 -19 51 -40 59 -47 7 -7 26 -21 40 -30 14 -9 30 -22 34 -29 4 -7
14 -13 22 -13 7 0 15 -4 17 -9 4 -11 182 -137 343 -243 148 -96 364 -226 475
-284 41 -21 77 -42 80 -45 5 -5 385 -197 395 -199 24 -5 65 -23 65 -29 0 -4 6
-8 13 -8 6 0 41 -13 77 -30 194 -89 769 -312 845 -327 6 -1 53 -16 105 -33 88
-29 161 -50 185 -54 6 -1 21 -6 35 -11 52 -21 198 -59 233 -61 9 -1 17 -5 17
-9 0 -4 12 -8 26 -8 14 0 34 -4 44 -10 10 -5 32 -11 50 -12 17 -1 34 -6 36
-10 2 -4 13 -5 24 -3 11 2 20 0 20 -6 0 -5 3 -8 8 -8 4 1 9 1 12 -1 5 -1 44
-8 83 -13 13 -2 27 -6 33 -9 5 -4 28 -9 49 -12 22 -3 54 -9 72 -14 17 -6 34
-8 37 -5 2 3 10 1 17 -3 7 -4 22 -9 34 -10 11 -1 34 -5 50 -9 17 -3 39 -8 50
-9 11 -2 20 -4 20 -6 0 -2 17 -4 123 -16 34 -4 62 -10 62 -13 0 -3 12 -7 28
-7 38 -2 121 -12 157 -19 17 -3 48 -7 70 -9 22 -3 40 -5 40 -6 0 0 22 -3 49
-5 27 -3 67 -7 90 -9 23 -3 75 -8 116 -11 41 -4 90 -8 109 -11 229 -26 972
-26 1246 1 192 19 294 30 359 41 16 3 49 7 72 9 24 1 47 5 51 8 5 3 35 8 67
12 33 3 63 8 67 11 5 3 29 7 55 10 26 2 50 6 54 9 4 2 22 7 41 10 19 3 54 11
79 16 42 10 82 18 105 23 6 1 15 5 22 9 6 4 24 8 40 9 15 1 33 5 38 9 11 7 86
23 98 21 4 -1 7 2 7 6 0 7 16 11 58 14 6 1 12 5 12 9 0 5 7 6 15 3 8 -4 15 -2
15 3 0 5 8 9 18 10 20 2 282 88 327 108 17 7 57 23 90 36 33 12 62 25 65 28 3
3 12 7 20 9 16 3 13 1 220 97 184 85 579 284 604 304 10 9 21 15 25 15 11 -2
51 19 51 28 0 4 3 7 8 6 11 -3 82 35 82 44 0 4 5 8 11 8 7 0 63 30 126 68 63
37 123 71 133 77 11 5 20 13 20 18 0 4 4 6 8 3 5 -3 18 2 28 12 10 9 36 26 57
37 20 11 37 23 37 27 0 5 7 8 15 8 8 0 15 3 15 8 0 4 12 13 28 20 31 14 449
306 491 343 15 13 31 25 35 25 8 2 68 48 90 69 6 6 27 22 46 35 19 14 45 34
56 45 12 11 32 29 45 39 88 71 319 275 374 331 12 11 66 64 121 117 56 54 99
100 96 103 -3 3 2 5 11 5 10 0 17 4 17 8 0 4 30 39 66 77 53 56 323 375 377
445 7 9 40 52 75 97 34 45 62 86 62 91 0 5 7 12 15 16 8 3 15 12 15 20 0 7 7
17 16 20 8 3 13 10 10 15 -3 5 1 12 10 15 9 4 14 9 11 12 -3 4 3 15 14 27 10
11 19 26 19 33 0 6 7 15 16 18 8 3 12 10 9 16 -3 5 -2 10 3 10 5 0 15 12 23
27 8 16 18 33 22 38 24 30 75 115 69 115 -4 0 1 5 11 11 9 6 15 14 12 20 -4 5
-1 9 6 9 7 0 10 3 6 6 -3 3 11 32 31 63 20 32 53 89 72 127 19 38 37 71 40 74
7 7 120 236 161 325 57 126 68 153 62 159 -4 3 -1 6 5 6 7 0 12 6 12 13 0 7 9
32 20 55 11 22 20 45 20 50 0 6 7 23 15 38 8 16 15 36 15 44 0 9 4 20 9 25 8
9 30 71 31 87 0 4 9 28 20 53 11 25 17 45 13 45 -3 0 0 7 7 15 6 8 9 19 5 25
-3 5 -2 10 3 10 9 0 35 88 35 118 0 6 5 12 10 12 5 0 7 7 3 15 -3 8 -2 15 3
15 4 0 8 6 9 13 0 6 8 37 17 67 9 30 18 63 20 73 2 10 6 26 9 35 3 9 8 31 11
47 8 38 13 60 15 60 1 0 3 9 5 19 2 11 7 31 11 45 4 14 8 34 9 44 2 9 3 18 5
20 2 3 9 36 14 72 3 17 5 30 6 30 2 0 10 38 14 70 3 17 5 30 6 30 2 0 10 36
14 70 11 89 18 132 23 145 4 8 5 19 4 23 0 4 5 54 13 110 15 101 19 144 31
282 4 39 8 86 10 105 26 227 26 1065 0 1415 -2 28 -6 86 -10 130 -3 44 -8 98
-10 120 -3 22 -7 74 -10 115 -2 42 -6 82 -9 90 -3 8 -7 49 -10 90 -2 41 -7 82
-10 90 -2 8 -7 38 -10 65 -8 72 -17 136 -22 165 -3 14 -7 36 -8 50 -2 14 -6
39 -10 55 -3 17 -8 48 -11 70 -5 42 -11 75 -19 103 -3 9 -7 35 -11 57 -3 22
-7 47 -10 55 -2 8 -6 26 -9 40 -3 14 -8 39 -11 55 -3 17 -12 53 -19 82 -8 28
-11 54 -8 57 3 3 1 6 -4 6 -6 0 -10 10 -11 23 -1 27 -8 53 -22 90 -6 15 -8 27
-5 27 4 0 1 7 -6 15 -7 8 -10 15 -7 15 3 0 -3 30 -14 68 -11 37 -22 78 -25 92
-3 14 -9 27 -15 28 -5 2 -7 8 -4 12 3 5 -1 25 -9 45 -8 19 -15 39 -16 43 0 4
-8 30 -17 57 -10 28 -17 52 -18 55 0 5 -18 51 -35 95 -4 11 -18 47 -31 80 -12
33 -26 64 -31 70 -4 5 -8 15 -8 21 0 41 -210 449 -302 586 -21 31 -38 61 -38
67 0 5 -4 11 -8 13 -5 2 -23 26 -42 53 -18 28 -36 52 -40 55 -3 3 -17 21 -30
39 -25 36 -97 117 -161 180 -105 103 -188 162 -222 156 -53 -11 -131 -45 -262
-116 -174 -93 -188 -102 -197 -114 -4 -5 -8 -6 -8 -1 0 5 -11 -1 -25 -14 -14
-13 -25 -19 -25 -14 0 5 -7 0 -15 -10 -8 -11 -15 -17 -15 -13 0 6 -77 -39 -90
-53 -6 -7 -78 -37 -109 -46 -13 -3 -39 -21 -57 -40 -28 -27 -151 -115 -189
-134 -5 -3 -41 -26 -80 -51 -38 -25 -137 -90 -220 -144 -82 -54 -153 -102
-156 -107 -3 -5 -8 -9 -10 -8 -8 4 -79 -42 -79 -51 0 -5 -3 -8 -7 -7 -11 4
-73 -35 -73 -45 0 -4 -4 -6 -8 -3 -5 3 -20 -6 -35 -20 -14 -13 -29 -24 -32
-24 -13 0 -115 -74 -115 -83 0 -6 -3 -8 -6 -4 -3 3 -83 -47 -177 -110 -94 -64
-176 -116 -184 -116 -7 0 -11 -3 -8 -5 3 -3 -30 -29 -73 -57 -56 -38 -80 -50
-90 -42 -9 7 -11 6 -7 -5 3 -8 -1 -21 -10 -28 -8 -7 -15 -9 -15 -5 0 5 -9 0
-19 -9 -11 -10 -25 -15 -31 -11 -6 3 -9 1 -8 -5 2 -7 -6 -17 -17 -23 -11 -7
-22 -14 -25 -17 -9 -10 -80 -55 -131 -84 -18 -10 -39 -25 -47 -32 -7 -8 -17
-14 -21 -14 -4 0 -17 -9 -29 -20 -12 -12 -22 -18 -22 -15 0 7 -194 -117 -198
-127 -2 -5 -8 -8 -13 -8 -5 0 -42 -21 -83 -48 -98 -62 -266 -169 -330 -209
-28 -17 -62 -40 -76 -50 -14 -10 -27 -18 -30 -18 -3 -1 -32 -19 -65 -40 -33
-22 -63 -38 -67 -37 -5 1 -8 -3 -8 -8 0 -6 -5 -10 -10 -10 -6 0 -36 -18 -68
-39 -31 -22 -69 -45 -84 -51 -34 -16 -43 -39 -21 -55 15 -11 14 -14 -15 -29
-18 -9 -32 -21 -32 -27 0 -6 -4 -8 -8 -5 -5 3 -18 -2 -28 -12 -10 -9 -50 -37
-89 -62 -38 -24 -72 -47 -75 -51 -3 -3 -135 -93 -295 -199 -159 -106 -297
-198 -306 -206 -9 -8 -19 -11 -22 -7 -4 3 -7 1 -7 -5 0 -7 -6 -12 -13 -12 -7
0 -23 -9 -36 -21 -12 -11 -32 -26 -44 -33 -17 -9 -278 -179 -347 -226 -8 -6
-40 -26 -70 -45 -30 -19 -59 -38 -65 -42 -5 -5 -64 -42 -130 -83 -66 -41 -123
-79 -127 -85 -4 -5 -8 -6 -8 -1 0 5 -8 2 -17 -6 -24 -21 -191 -118 -203 -118
-5 0 -13 -6 -17 -14 -4 -8 -10 -14 -13 -14 -13 1 -80 -37 -80 -44 0 -5 -4 -6
-10 -3 -5 3 -10 1 -10 -4 0 -6 -3 -10 -7 -9 -5 0 -46 -17 -93 -39 -105 -50
-126 -55 -145 -36 -18 17 -20 48 -3 37 7 -4 8 -3 4 5 -4 6 -12 9 -17 6 -8 -5
-14 32 -10 58 0 4 -4 7 -9 7 -7 0 -7 7 1 21 8 15 8 19 0 15 -11 -7 -13 -1 -13
67 0 20 -4 40 -9 43 -5 3 -6 11 -2 17 10 17 11 47 1 41 -4 -3 -8 12 -9 33 0
21 -2 46 -4 55 -2 10 1 21 6 24 6 3 5 11 -2 20 -6 7 -9 21 -5 29 3 8 0 15 -6
15 -6 0 -3 9 7 20 14 15 15 19 4 15 -12 -4 -16 4 -18 37 -6 102 -5 138 4 138
6 0 5 4 -2 8 -7 4 -12 16 -12 27 0 11 -1 44 -2 72 -1 29 0 56 4 59 4 4 3 12
-2 18 -14 17 -21 207 -7 199 8 -5 8 -3 0 8 -12 15 -24 89 -14 89 3 0 5 11 5
25 0 14 -2 25 -5 25 -3 0 -6 9 -6 20 0 11 5 20 11 20 5 0 3 5 -5 10 -13 8 -13
13 -2 31 8 11 9 18 3 14 -15 -9 -14 18 2 34 10 11 10 13 0 7 -10 -5 -13 10
-14 61 -1 37 -2 75 -3 83 -1 8 3 21 9 29 7 11 7 13 -2 7 -9 -5 -12 9 -10 59 1
36 0 65 -3 65 -9 0 -5 85 5 92 7 5 7 8 0 8 -5 0 -10 13 -11 30 -1 16 2 27 6
25 4 -2 7 2 7 10 0 8 -3 12 -7 10 -12 -7 -11 97 1 111 9 11 9 13 -2 9 -11 -4
-14 5 -14 35 0 22 4 40 8 40 5 0 5 5 1 11 -3 6 -7 53 -9 105 -1 52 -5 98 -9
101 -3 3 -1 12 5 20 9 10 8 13 -1 13 -9 0 -7 7 6 21 12 13 14 19 5 17 -9 -2
-14 7 -15 25 -1 15 1 27 5 27 3 0 6 7 6 15 0 8 -3 15 -7 15 -10 0 -7 52 4 69
6 9 5 12 -1 8 -7 -4 -11 24 -12 80 -1 47 -4 90 -7 94 -2 4 0 10 6 14 6 4 7 12
1 22 -5 9 -5 29 -1 45 6 18 5 28 -2 28 -7 0 -6 5 1 14 7 8 8 17 4 19 -5 3 -10
40 -11 82 -2 60 0 75 10 70 7 -4 5 0 -4 8 -13 10 -15 16 -6 25 7 7 8 12 2 12
-12 0 -12 220 0 239 6 10 5 12 -2 7 -16 -10 -15 16 1 33 7 9 7 11 1 8 -14 -8
-25 61 -12 69 5 3 6 9 4 13 -9 14 -10 166 -2 180 6 10 5 12 -2 7 -16 -10 -15
7 1 23 7 9 7 11 1 8 -8 -5 -12 9 -13 46 -1 28 -3 76 -4 105 -1 28 2 52 7 52 5
0 3 6 -3 13 -6 8 -8 17 -4 20 8 9 10 66 1 61 -11 -7 -6 39 6 55 8 11 8 13 0 8
-9 -5 -12 23 -13 100 -1 59 -4 109 -6 112 -3 2 0 10 6 18 7 8 7 13 2 13 -7 0
-8 15 -3 40 4 22 3 37 -1 34 -14 -8 -11 20 4 35 8 9 8 12 0 7 -8 -4 -12 16
-12 76 0 46 -2 128 -5 183 -5 101 -12 326 -22 755 -5 218 -8 280 -18 400 -9
100 -19 335 -20 495 -1 94 -4 175 -8 180 -6 10 -14 83 -23 220 -13 187 -25
313 -40 430 -13 96 -37 211 -51 237 -13 26 -19 28 -73 28 -32 0 -60 -2 -62 -4z"/>
</g>
</svg>
